<svg width="85" height="85" fill="none" xmlns="http://www.w3.org/2000/svg"><path d="M12.95 54.202a1.67 1.67 0 001.173-.485c.309-.31.486-.737.486-1.175 0-.436-.177-.863-.486-1.174a1.671 1.671 0 00-1.174-.484c-.436 0-.865.175-1.174.484a1.68 1.68 0 00-.486 1.174c0 .438.178.865.486 1.175.31.31.738.485 1.174.485z" fill="#F5EEDB" fill-opacity=".85"/><path d="M73.709 12.617h2.324a1.66 1.66 0 001.66-1.66V1.66A1.66 1.66 0 0076.033 0H8.965a1.66 1.66 0 00-1.66 1.66v9.297c0 .916.743 1.66 1.66 1.66h2.324v32.206a1.66 1.66 0 103.32 0V12.617h3.985v59.766h-3.985V59.598a1.66 1.66 0 10-3.32 0v12.785H8.965a1.66 1.66 0 00-1.66 1.66v9.297c0 .917.743 1.66 1.66 1.66h67.068a1.66 1.66 0 001.66-1.66v-9.297a1.66 1.66 0 00-1.66-1.66H73.71V40.45a1.66 1.66 0 10-3.32 0v31.932h-3.984V12.617h3.984v13.004a1.66 1.66 0 103.32 0V12.617zM45.734 44.506l4.044 3.015c7.376 5.5 12.12 13.9 13.111 22.965L45.431 56.852a4.53 4.53 0 00-5.587 0L22.085 70.72c.935-9.155 5.696-17.653 13.136-23.2l4.044-3.014a2.518 2.518 0 001.007-2.008c0-.786-.377-1.537-1.007-2.007l-4.044-3.015a33.1 33.1 0 01-9.885-11.911h34.326a33.104 33.104 0 01-9.884 11.91l-4.044 3.016a2.514 2.514 0 00-1.007 2.007c0 .786.376 1.537 1.007 2.007zM25.354 72.38l16.534-12.913a1.217 1.217 0 011.5 0L59.922 72.38H25.353zM61.08 22.245H23.917a33.018 33.018 0 01-1.96-9.628h41.085a33.044 33.044 0 01-1.961 9.628zm-38.622 5.036a36.576 36.576 0 0010.777 12.857l3.166 2.36-3.166 2.362a36.587 36.587 0 00-10.777 12.856c-.189.378-.37.76-.545 1.143v-32.72c.176.383.356.765.545 1.142zm40.08 30.435A36.581 36.581 0 0051.763 44.86l-3.166-2.361 3.166-2.36A36.578 36.578 0 0062.538 27.28c.189-.377.37-.759.546-1.143V58.86a37.548 37.548 0 00-.546-1.143zm11.834 17.987v5.977H10.625v-5.977h63.748zM10.625 9.297V3.32h63.748v5.977H10.625z" fill="#F5EEDB" fill-opacity=".85"/><path d="M72.049 31.606a1.67 1.67 0 00-1.173.487 1.67 1.67 0 00-.487 1.174c0 .437.177.866.487 1.175a1.67 1.67 0 001.173.484 1.67 1.67 0 001.174-.484 1.68 1.68 0 00.486-1.175c0-.438-.178-.864-.486-1.174a1.67 1.67 0 00-1.174-.487zM42.658 46.317a1.66 1.66 0 00-1.66 1.66v3.042a1.66 1.66 0 103.32 0v-3.042a1.66 1.66 0 00-1.66-1.66z" fill="#F5EEDB" fill-opacity=".85"/></svg>