<svg width="85" height="85" fill="none" xmlns="http://www.w3.org/2000/svg"><g clip-path="url(#clip0)" fill="#F5EEDB" fill-opacity=".85"><path d="M74.812 21.64H7.886a1.917 1.917 0 00-1.917 1.918c0 12.279 8.272 23.08 20.116 26.266 3.725 1.002 6.695 3.751 7.944 7.353l2.426 6.997c.268.772.995 1.29 1.812 1.29h6.165c.816 0 1.544-.518 1.811-1.29l2.426-6.997c1.25-3.602 4.219-6.35 7.945-7.353a27.142 27.142 0 0017.592-14.81 1.917 1.917 0 10-3.476-1.617 23.318 23.318 0 01-15.113 12.725c-4.953 1.332-8.905 4.995-10.57 9.8l-1.98 5.707h-3.436l-1.979-5.708c-1.666-4.804-5.617-8.467-10.57-9.8-9.552-2.569-16.4-10.906-17.2-20.646h64.93a1.917 1.917 0 100-3.834zm-33.463-4.65c4.228 0 7.668-3.44 7.668-7.668 0-4.229-3.44-7.669-7.668-7.669s-7.668 3.44-7.668 7.669c0 4.228 3.44 7.668 7.668 7.668zm0-11.502a3.839 3.839 0 013.834 3.834 3.839 3.839 0 01-3.834 3.834 3.839 3.839 0 01-3.834-3.834 3.839 3.839 0 013.834-3.834zM60.004 16.99c4.229 0 7.669-3.44 7.669-7.668 0-4.229-3.44-7.669-7.669-7.669-4.228 0-7.668 3.44-7.668 7.669 0 4.228 3.44 7.668 7.668 7.668zm0-11.502a3.839 3.839 0 013.835 3.834 3.839 3.839 0 01-3.835 3.834 3.839 3.839 0 01-3.834-3.834 3.839 3.839 0 013.834-3.834zM22.694 16.99c4.228 0 7.668-3.44 7.668-7.668 0-4.229-3.44-7.669-7.668-7.669-4.229 0-7.669 3.44-7.669 7.669 0 4.228 3.44 7.668 7.669 7.668zm0-11.502a3.839 3.839 0 013.834 3.834 3.839 3.839 0 01-3.834 3.834 3.839 3.839 0 01-3.834-3.834 3.839 3.839 0 013.834-3.834zm18.655 64.175c-4.228 0-7.668 3.44-7.668 7.669 0 4.228 3.44 7.668 7.668 7.668s7.668-3.44 7.668-7.668c0-4.229-3.44-7.669-7.668-7.669zm0 11.503a3.839 3.839 0 01-3.834-3.834 3.839 3.839 0 013.834-3.835 3.839 3.839 0 013.834 3.835 3.839 3.839 0 01-3.834 3.834z"/></g><defs><clipPath id="clip0"><path fill="#fff" d="M0 0h85v85H0z"/></clipPath></defs></svg>