<svg width="85" height="85" fill="none" xmlns="http://www.w3.org/2000/svg"><g clip-path="url(#clip0)" fill="#F5EEDB" fill-opacity=".85"><path d="M65.176 19.833a13 13 0 00-9.296 3.938c-.83.86-1.533 1.833-2.088 2.892a12.77 12.77 0 00-9.799-6.736c.699-9.623 8.702-17.078 18.35-17.094h1.416V0h-1.416C51.14.018 41.874 8.727 41.16 19.907a12.764 12.764 0 00-9.984 6.868c-3.208-6.269-10.89-8.75-17.159-5.542-6.268 3.208-8.75 10.89-5.541 17.158a12.75 12.75 0 0011.366 6.942v-2.834c-5.476 0-9.916-4.44-9.916-9.916 0-5.477 4.44-9.917 9.916-9.917 5.477 0 9.917 4.44 9.917 9.917.008 7.038 5.712 12.742 12.75 12.75v-2.834c-5.477 0-9.917-4.44-9.917-9.916 0-5.477 4.44-9.917 9.917-9.917 5.477 0 9.916 4.44 9.916 9.917v.048l1.417-.048h1.417v-.048a9.272 9.272 0 012.659-6.8 10.152 10.152 0 017.257-3.069c5.474.006 9.91 4.443 9.917 9.917a10.89 10.89 0 01-3.654 8.052 7.508 7.508 0 01-6.053 1.88l-.425 2.802c.488.074.98.11 1.475.11a10.47 10.47 0 006.853-2.644 13.613 13.613 0 004.637-10.2c-.008-7.038-5.712-12.742-12.75-12.75z"/><path d="M53.843 62.332v2.834c7.038-.008 12.742-5.712 12.75-12.75 0-7.042-5.708-12.75-12.75-12.75-7.041 0-12.75 5.708-12.75 12.75 0 5.477-4.44 9.916-9.916 9.916-5.477 0-9.917-4.44-9.917-9.916 0-5.477 4.44-9.917 9.917-9.917v-2.833c-7.042 0-12.75 5.708-12.75 12.75 0 7.041 5.708 12.75 12.75 12.75.258 0 .508-.024.762-.039-3.933 5.841-2.387 13.764 3.454 17.698 5.84 3.933 13.764 2.386 17.697-3.455 3.933-5.84 2.387-13.764-3.454-17.697A12.75 12.75 0 0042.51 59.5c-.258 0-.509.024-.762.038a12.675 12.675 0 002.178-7.121c0-5.477 4.44-9.917 9.917-9.917 5.477 0 9.916 4.44 9.916 9.917 0 5.477-4.44 9.916-9.916 9.916zm-11.333 0c5.477 0 9.916 4.44 9.916 9.917 0 5.477-4.44 9.916-9.916 9.916-5.477 0-9.917-4.44-9.917-9.916.006-5.474 4.443-9.91 9.917-9.917z"/></g><defs><clipPath id="clip0"><path fill="#fff" d="M0 0h85v85H0z"/></clipPath></defs></svg>