<svg width="30" height="30" fill="none" xmlns="http://www.w3.org/2000/svg"><path d="M15 2.701c4.008 0 4.482.018 6.059.088 1.464.065 2.255.31 2.783.516.697.27 1.201.597 1.723 1.119.527.527.85 1.025 1.119 1.722.205.528.45 1.325.515 2.784.07 1.582.088 2.056.088 6.058 0 4.008-.017 4.483-.088 6.059-.064 1.465-.31 2.256-.515 2.783a4.639 4.639 0 01-1.12 1.723 4.614 4.614 0 01-1.722 1.119c-.527.205-1.324.451-2.783.515-1.582.07-2.057.088-6.059.088-4.008 0-4.482-.017-6.059-.087-1.464-.065-2.255-.311-2.783-.516a4.64 4.64 0 01-1.722-1.12 4.614 4.614 0 01-1.12-1.722c-.205-.527-.45-1.324-.515-2.783-.07-1.582-.088-2.057-.088-6.059 0-4.008.017-4.482.088-6.058.064-1.465.31-2.256.515-2.784a4.639 4.639 0 011.12-1.722 4.614 4.614 0 011.722-1.12c.528-.204 1.324-.45 2.783-.515 1.577-.07 2.051-.088 6.059-.088zM15 0c-4.072 0-4.582.018-6.182.088-1.593.07-2.69.328-3.638.697A7.321 7.321 0 002.52 2.52 7.35 7.35 0 00.785 5.174C.416 6.129.158 7.219.088 8.812.018 10.418 0 10.928 0 15c0 4.072.018 4.582.088 6.182.07 1.593.328 2.69.697 3.638.387.99.897 1.828 1.735 2.66a7.333 7.333 0 002.654 1.729c.955.37 2.045.627 3.638.697 1.6.07 2.11.088 6.182.088 4.072 0 4.582-.017 6.182-.088 1.594-.07 2.69-.328 3.639-.697a7.334 7.334 0 002.654-1.729 7.334 7.334 0 001.728-2.654c.37-.955.627-2.045.698-3.639.07-1.6.087-2.109.087-6.181s-.017-4.582-.087-6.182c-.07-1.594-.329-2.69-.698-3.638a7.026 7.026 0 00-1.716-2.666A7.333 7.333 0 0024.825.79C23.87.42 22.78.163 21.186.093 19.582.018 19.072 0 15 0z" fill="#BD9C71"/><path d="M15 7.295A7.707 7.707 0 007.295 15 7.707 7.707 0 0015 22.705 7.707 7.707 0 0022.705 15 7.707 7.707 0 0015 7.295zm0 12.703a4.999 4.999 0 11.001-9.997A4.999 4.999 0 0115 19.998zM24.809 6.99a1.8 1.8 0 11-3.599 0 1.8 1.8 0 013.599 0z" fill="#BD9C71"/></svg>