<svg width="30" height="30" fill="none" xmlns="http://www.w3.org/2000/svg"><g clip-path="url(#clip0)"><path d="M9.438 27.187c11.318 0 17.51-9.379 17.51-17.51 0-.263-.006-.533-.018-.797A12.5 12.5 0 0030 5.694c-1.122.5-2.313.825-3.533.967a6.188 6.188 0 002.707-3.404 12.371 12.371 0 01-3.907 1.494 6.163 6.163 0 00-10.493 5.612A17.48 17.48 0 012.091 3.937a6.162 6.162 0 001.905 8.213 6.161 6.161 0 01-2.789-.768v.077a6.152 6.152 0 004.938 6.035 6.117 6.117 0 01-2.776.105 6.167 6.167 0 005.746 4.277A12.344 12.344 0 010 24.424a17.46 17.46 0 009.438 2.764z" fill="#BD9C71"/></g><defs><clipPath id="clip0"><path fill="#fff" d="M0 0h30v30H0z"/></clipPath></defs></svg>