<svg width="30" height="30" fill="none" xmlns="http://www.w3.org/2000/svg"><path d="M29.701 9s-.293-2.068-1.195-2.977c-1.143-1.195-2.42-1.2-3.006-1.271-4.195-.305-10.494-.305-10.494-.305h-.012s-6.299 0-10.494.305c-.586.07-1.863.076-3.006 1.271C.592 6.932.304 9 .304 9S0 11.432 0 13.857v2.274c0 2.426.299 4.857.299 4.857s.293 2.069 1.19 2.977c1.142 1.195 2.642 1.154 3.31 1.283C7.2 25.477 15 25.547 15 25.547s6.305-.012 10.5-.31c.586-.071 1.863-.077 3.006-1.272.902-.908 1.195-2.977 1.195-2.977S30 18.563 30 16.131v-2.274C30 11.432 29.701 9 29.701 9zm-17.8 9.89v-8.43l8.103 4.23-8.104 4.202z" fill="#BD9C71"/></svg>