<svg width="85" height="85" viewBox="0 0 85 85" fill="none" xmlns="http://www.w3.org/2000/svg">
<path d="M12.9492 54.2022C13.3857 54.2022 13.8143 54.0264 14.123 53.7171C14.4317 53.4071 14.6094 52.9804 14.6094 52.542C14.6094 52.1056 14.4317 51.6788 14.123 51.3682C13.8143 51.0595 13.3857 50.8838 12.9492 50.8838C12.5128 50.8838 12.0841 51.0595 11.7754 51.3682C11.4668 51.6788 11.2891 52.1056 11.2891 52.542C11.2891 52.9804 11.4668 53.4071 11.7754 53.7171C12.0841 54.0264 12.5128 54.2022 12.9492 54.2022Z" fill="#F5EEDB" fill-opacity="0.85"/>
<path d="M73.709 12.6172H76.0332C76.9502 12.6172 77.6934 11.8734 77.6934 10.957V1.66016C77.6934 0.743179 76.9502 0 76.0332 0H8.96484C8.04787 0 7.30469 0.743179 7.30469 1.66016V10.957C7.30469 11.8734 8.04787 12.6172 8.96484 12.6172H11.2891V44.8229C11.2891 45.7399 12.0322 46.4831 12.9492 46.4831C13.8662 46.4831 14.6094 45.7399 14.6094 44.8229V12.6172H18.5938V72.3828H14.6094V59.5983C14.6094 58.6813 13.8662 57.9382 12.9492 57.9382C12.0322 57.9382 11.2891 58.6813 11.2891 59.5983V72.3828H8.96484C8.04787 72.3828 7.30469 73.1266 7.30469 74.043V83.3398C7.30469 84.2568 8.04787 85 8.96484 85H76.0332C76.9502 85 77.6934 84.2568 77.6934 83.3398V74.043C77.6934 73.1266 76.9502 72.3828 76.0332 72.3828H73.709V40.4514C73.709 39.5344 72.9658 38.7912 72.0488 38.7912C71.1325 38.7912 70.3893 39.5344 70.3893 40.4514V72.3828H66.405V12.6172H70.3893V25.6209C70.3893 26.5379 71.1325 27.281 72.0488 27.281C72.9658 27.281 73.709 26.5379 73.709 25.6209V12.6172ZM45.7341 44.5058L49.7781 47.5213C57.1535 53.0206 61.8972 61.4206 62.8894 70.486L45.4306 56.8519C43.786 55.5672 41.489 55.5672 39.8444 56.8519L22.0853 70.7207C23.0204 61.5659 27.781 53.0679 35.2206 47.5213L39.2646 44.5065C39.895 44.0363 40.2711 43.2853 40.2718 42.4994C40.2718 41.7127 39.895 40.9624 39.2646 40.4922L35.2206 37.4767C30.9879 34.3211 27.6234 30.209 25.3355 25.5658H59.6625C57.3746 30.209 54.0102 34.3211 49.7781 37.4767L45.7341 40.4922C45.1031 40.9624 44.7269 41.7127 44.7269 42.4994C44.7269 43.2853 45.1031 44.0356 45.7341 44.5058ZM25.3531 72.3809L41.8878 59.468C42.3294 59.1236 42.9455 59.1236 43.3871 59.468L59.9219 72.3809H25.3531ZM61.0808 22.2454H23.9173C22.7973 19.1735 22.1248 15.9291 21.9562 12.6172H63.0425C62.8732 15.9291 62.2007 19.1735 61.0808 22.2454ZM22.4594 27.281C24.9879 32.3218 28.7149 36.7673 33.2355 40.1382L36.4015 42.4987L33.2355 44.8599C28.7149 48.2308 24.9886 52.6762 22.4594 57.7164C22.2701 58.0938 22.0898 58.4758 21.9141 58.859V26.1384C22.0898 26.5223 22.2701 26.9043 22.4594 27.281ZM62.5393 57.7164C60.0101 52.6762 56.2838 48.2308 51.7625 44.8599L48.5965 42.4987L51.7625 40.1382C56.2838 36.7673 60.0101 32.3218 62.5393 27.281C62.728 26.9043 62.9089 26.5223 63.0846 26.1384V58.859C62.9089 58.4758 62.728 58.0938 62.5393 57.7164ZM74.3731 75.7031V81.6797H10.625V75.7031H74.3731ZM10.625 9.29688V3.32031H74.3731V9.29688H10.625Z" fill="#F5EEDB" fill-opacity="0.85"/>
<path d="M72.0488 31.6064C71.6124 31.6064 71.1844 31.7835 70.8757 32.0928C70.5664 32.4015 70.3893 32.8295 70.3893 33.2666C70.3893 33.7043 70.5664 34.133 70.8757 34.4417C71.1844 34.7504 71.6124 34.9261 72.0488 34.9261C72.4859 34.9261 72.9139 34.7504 73.2226 34.4417C73.5313 34.1311 73.709 33.7043 73.709 33.2666C73.709 32.8295 73.5313 32.4028 73.2226 32.0928C72.9139 31.7835 72.4859 31.6064 72.0488 31.6064Z" fill="#F5EEDB" fill-opacity="0.85"/>
<path d="M42.6576 46.3171C41.7406 46.3171 40.9974 47.0603 40.9974 47.9773V51.0188C40.9974 51.9357 41.7406 52.6789 42.6576 52.6789C43.5746 52.6789 44.3177 51.9357 44.3177 51.0188V47.9773C44.3177 47.0603 43.5746 46.3171 42.6576 46.3171Z" fill="#F5EEDB" fill-opacity="0.85"/>
</svg>
