<svg width="85" height="85" viewBox="0 0 85 85" fill="none" xmlns="http://www.w3.org/2000/svg">
<g clip-path="url(#clip0)">
<path d="M74.8122 21.6406H7.88598C6.82723 21.6406 5.96887 22.4987 5.96887 23.5577C5.96887 35.8369 14.2408 46.6382 26.085 49.8242C29.8103 50.8264 32.78 53.5751 34.0292 57.1772L36.4555 64.1741C36.7229 64.9458 37.4501 65.4632 38.2668 65.4632H44.4317C45.2484 65.4632 45.9756 64.9458 46.243 64.1741L48.6693 57.1772C49.9184 53.5751 52.8879 50.8264 56.6135 49.8242C64.3901 47.7322 70.8024 42.3339 74.2064 35.0131C74.653 34.053 74.2363 32.9127 73.2762 32.4664C72.3159 32.0201 71.1759 32.4365 70.7296 33.3966C67.8046 39.6868 62.2963 44.3251 55.6174 46.1218C50.6641 47.4541 46.7123 51.1173 45.0467 55.9211L43.0675 61.629H39.6312L37.652 55.9211C35.9864 51.1173 32.0346 47.4541 27.0813 46.1218C17.5298 43.5524 10.6829 35.215 9.88182 25.4751H74.8127C75.8715 25.4751 76.7298 24.617 76.7298 23.558C76.7298 22.499 75.871 21.6406 74.8122 21.6406Z" fill="#F5EEDB" fill-opacity="0.85"/>
<path d="M41.349 16.9902C45.5773 16.9902 49.0174 13.5501 49.0174 9.32176C49.0174 5.09338 45.5773 1.65332 41.349 1.65332C37.1206 1.65332 33.6805 5.09338 33.6805 9.32176C33.6805 13.5501 37.1206 16.9902 41.349 16.9902ZM41.349 5.48754C43.4632 5.48754 45.1832 7.20757 45.1832 9.32176C45.1832 11.4359 43.4632 13.156 41.349 13.156C39.2348 13.156 37.5148 11.4359 37.5148 9.32176C37.5148 7.20757 39.2348 5.48754 41.349 5.48754Z" fill="#F5EEDB" fill-opacity="0.85"/>
<path d="M60.0042 16.9902C64.2326 16.9902 67.6727 13.5501 67.6727 9.32176C67.6727 5.09338 64.2326 1.65332 60.0042 1.65332C55.7759 1.65332 52.3358 5.09338 52.3358 9.32176C52.3358 13.5501 55.7759 16.9902 60.0042 16.9902ZM60.0042 5.48754C62.1184 5.48754 63.8385 7.20757 63.8385 9.32176C63.8385 11.4359 62.1184 13.156 60.0042 13.156C57.8901 13.156 56.17 11.4359 56.17 9.32176C56.17 7.20757 57.8901 5.48754 60.0042 5.48754Z" fill="#F5EEDB" fill-opacity="0.85"/>
<path d="M22.6937 16.9902C26.9221 16.9902 30.3621 13.5501 30.3621 9.32176C30.3621 5.09338 26.9221 1.65332 22.6937 1.65332C18.4653 1.65332 15.0253 5.09338 15.0253 9.32176C15.0253 13.5501 18.4653 16.9902 22.6937 16.9902ZM22.6937 5.48754C24.8079 5.48754 26.5279 7.20757 26.5279 9.32176C26.5279 11.4359 24.8079 13.156 22.6937 13.156C20.5795 13.156 18.8595 11.4359 18.8595 9.32176C18.8595 7.20757 20.5795 5.48754 22.6937 5.48754Z" fill="#F5EEDB" fill-opacity="0.85"/>
<path d="M41.349 69.6631C37.1206 69.6631 33.6805 73.1031 33.6805 77.3315C33.6805 81.5599 37.1206 85 41.349 85C45.5773 85 49.0174 81.5599 49.0174 77.3315C49.0174 73.1031 45.5773 69.6631 41.349 69.6631ZM41.349 81.1657C39.2348 81.1657 37.5148 79.4457 37.5148 77.3315C37.5148 75.2173 39.2348 73.4973 41.349 73.4973C43.4632 73.4973 45.1832 75.2173 45.1832 77.3315C45.1832 79.4457 43.4632 81.1657 41.349 81.1657Z" fill="#F5EEDB" fill-opacity="0.85"/>
</g>
<defs>
<clipPath id="clip0">
<rect width="85" height="85" fill="white"/>
</clipPath>
</defs>
</svg>
