<svg width="85" height="85" viewBox="0 0 85 85" fill="none" xmlns="http://www.w3.org/2000/svg">
<g clip-path="url(#clip0)">
<path d="M65.1762 19.833C61.6735 19.8398 58.3217 21.2598 55.8801 23.7713C55.0498 24.6307 54.3466 25.6043 53.792 26.6627C51.8342 22.9408 48.1693 20.4213 43.993 19.9265C44.6916 10.3036 52.6946 2.8487 62.3429 2.83329H63.7595V0H62.3429C51.1402 0.0184164 41.8741 8.72672 41.1612 19.9067C36.8891 20.3694 33.1366 22.9506 31.1767 26.7746C27.9688 20.5061 20.2869 18.025 14.0184 21.2329C7.74994 24.4407 5.26886 32.1226 8.47667 38.3911C10.6599 42.6573 15.051 45.339 19.8435 45.3327V42.4994C14.3667 42.4994 9.92697 38.0596 9.92697 32.5829C9.92697 27.1061 14.3667 22.6663 19.8435 22.6663C25.3202 22.6663 29.76 27.1061 29.76 32.5829C29.7678 39.6211 35.4716 45.3249 42.5098 45.3327V42.4994C37.0331 42.4994 32.5933 38.0596 32.5933 32.5829C32.5933 27.1061 37.0331 22.6663 42.5098 22.6663C47.9866 22.6663 52.4263 27.1061 52.4263 32.5829C52.4263 32.5984 52.4263 32.614 52.4263 32.631L53.843 32.5829H55.2596V32.5347C55.1787 29.9998 56.1396 27.5424 57.9187 25.7348C59.826 23.7766 62.4426 22.6702 65.1762 22.6663C70.6503 22.6725 75.0865 27.1088 75.0927 32.5829C75.0684 35.6628 73.741 38.5884 71.4392 40.6351C69.7978 42.1245 67.5822 42.8125 65.3858 42.515L64.9608 45.3171C65.449 45.3906 65.9419 45.4274 66.4356 45.4276C68.9646 45.4028 71.3991 44.4632 73.2893 42.7827C76.2272 40.206 77.9162 36.4907 77.926 32.5829C77.9182 25.5446 72.2144 19.8408 65.1762 19.833Z" fill="#F5EEDB" fill-opacity="0.85"/>
<path d="M53.843 62.3324V65.1657C60.8813 65.1579 66.585 59.4541 66.5928 52.4158C66.5928 45.3742 60.8846 39.666 53.843 39.666C46.8016 39.666 41.0932 45.3742 41.0932 52.4158C41.0932 57.8926 36.6534 62.3324 31.1767 62.3324C25.6999 62.3324 21.2601 57.8926 21.2601 52.4158C21.2601 46.9391 25.6999 42.4993 31.1767 42.4993V39.666C24.1352 39.666 18.4268 45.3742 18.4268 52.4158C18.4268 59.4573 24.135 65.1657 31.1767 65.1657C31.4345 65.1657 31.6852 65.1416 31.9388 65.1274C28.0057 70.9681 29.5521 78.8914 35.393 82.8245C41.2338 86.7577 49.1569 85.2112 53.0901 79.3704C57.0232 73.5297 55.4767 65.6064 49.6359 61.6733C47.5301 60.2552 45.0488 59.4982 42.5098 59.4991C42.252 59.4991 42.0013 59.5232 41.7477 59.5373C43.1707 57.4352 43.9297 54.9543 43.9265 52.4158C43.9265 46.9391 48.3662 42.4993 53.843 42.4993C59.3198 42.4993 63.7595 46.9391 63.7595 52.4158C63.7595 57.8926 59.3198 62.3324 53.843 62.3324ZM42.5098 62.3324C47.9866 62.3324 52.4264 66.7721 52.4264 72.2489C52.4264 77.7256 47.9866 82.1654 42.5098 82.1654C37.0331 82.1654 32.5933 77.7256 32.5933 72.2489C32.5995 66.7748 37.0356 62.3386 42.5098 62.3324Z" fill="#F5EEDB" fill-opacity="0.85"/>
</g>
<defs>
<clipPath id="clip0">
<rect width="85" height="85" fill="white"/>
</clipPath>
</defs>
</svg>
